<?xml version="1.0" standalone="no"?><!DOCTYPE svg PUBLIC "-//W3C//DTD SVG 1.1//EN" "http://www.w3.org/Graphics/SVG/1.1/DTD/svg11.dtd"><svg t="1517799993265" class="icon" style="" viewBox="0 0 1024 1024" version="1.1" xmlns="http://www.w3.org/2000/svg" p-id="4120" xmlns:xlink="http://www.w3.org/1999/xlink" width="48" height="48"><defs><style type="text/css">@font-face { font-family: uc-nexus-iconfont; src: url("chrome-extension://pogijhnlcfmcppgimcaccdkmbedjkmhi/res/font_9qmmi8b8jsxxbt9.woff") format("woff"), url("chrome-extension://pogijhnlcfmcppgimcaccdkmbedjkmhi/res/font_9qmmi8b8jsxxbt9.ttf") format("truetype"); }
</style></defs><path d="M512 19.692308C240.246154 19.692308 19.692308 240.246154 19.692308 512s220.553846 492.307692 492.307692 492.307692S1004.307692 783.753846 1004.307692 512 783.753846 19.692308 512 19.692308z m0 216.615384c23.630769 0 39.384615 15.753846 39.384615 39.384616l-19.692307 374.153846c0 11.815385-11.815385 19.692308-19.692308 19.692308-11.815385 0-19.692308-7.876923-19.692308-19.692308L472.615385 275.692308c0-23.630769 15.753846-39.384615 39.384615-39.384616z m0 551.384616c-23.630769 0-39.384615-15.753846-39.384615-39.384616s15.753846-39.384615 39.384615-39.384615 39.384615 15.753846 39.384615 39.384615-15.753846 39.384615-39.384615 39.384616z" fill="#1296db" p-id="4121"></path></svg>