<?xml version="1.0" standalone="no"?><!DOCTYPE svg PUBLIC "-//W3C//DTD SVG 1.1//EN" "http://www.w3.org/Graphics/SVG/1.1/DTD/svg11.dtd"><svg t="1517799509640" class="icon" style="" viewBox="0 0 1024 1024" version="1.1" xmlns="http://www.w3.org/2000/svg" p-id="3951" xmlns:xlink="http://www.w3.org/1999/xlink" width="48" height="48"><defs><style type="text/css">@font-face { font-family: uc-nexus-iconfont; src: url("chrome-extension://pogijhnlcfmcppgimcaccdkmbedjkmhi/res/font_9qmmi8b8jsxxbt9.woff") format("woff"), url("chrome-extension://pogijhnlcfmcppgimcaccdkmbedjkmhi/res/font_9qmmi8b8jsxxbt9.ttf") format("truetype"); }
</style></defs><path d="M462.848 8.192C290.4064 25.8048 140.9024 127.7952 62.6688 280.9856 38.5024 327.68 19.2512 385.4336 11.8784 432.128c-6.9632 45.056-6.144 127.7952 2.048 169.984 29.0816 154.0096 127.3856 287.5392 264.192 357.9904 44.6464 22.9376 109.3632 44.6464 154.0096 52.0192 41.3696 6.144 117.1456 6.144 159.744-0.4096 44.6464-6.9632 109.3632-28.672 154.0096-51.6096 130.2528-67.1744 226.0992-191.2832 259.6864-336.2816 14.7456-63.488 15.5648-154.4192 2.048-216.6784-32.3584-148.6848-133.5296-279.7568-268.6976-347.3408-20.48-10.24-52.0192-23.3472-69.632-29.0816C609.4848 11.0592 523.4688 1.6384 462.848 8.192z m71.2704 164.6592c2.048 12.6976 2.4576 27.4432 0.8192 33.5872-2.4576 10.24-4.096 11.0592-22.1184 9.8304-18.8416-1.2288-19.2512-1.6384-20.48-15.5648-2.4576-26.2144 2.8672-49.152 12.6976-52.8384 17.2032-6.5536 24.9856 0.4096 29.0816 24.9856z m-151.9616 24.576c9.8304 13.1072 23.3472 37.2736 23.3472 41.7792 0 1.2288-7.3728 6.144-16.384 10.6496l-16.384 8.192-12.288-19.2512c-16.7936-26.624-18.8416-36.4544-10.24-46.2848 10.6496-11.8784 20.8896-10.24 31.9488 4.9152z m292.864-6.5536c4.9152 3.2768 9.0112 9.0112 9.0112 12.6976 0 4.9152-19.6608 43.8272-27.0336 53.6576-1.2288 2.048-34.4064-15.1552-34.4064-18.0224 0-4.5056 13.5168-28.672 23.3472-41.7792 11.0592-14.7456 15.9744-15.9744 29.0816-6.5536z m-80.2816 105.2672c52.0192 25.3952 91.3408 75.776 101.5808 129.4336 2.048 11.8784 4.096 68.8128 4.096 125.7472V655.36l-185.1392-0.8192-185.5488-1.2288-0.8192-67.584c-0.4096-37.2736 0.4096-91.7504 2.4576-121.6512 2.8672-47.104 4.9152-56.9344 15.5648-79.872 21.7088-45.8752 59.392-79.4624 108.1344-97.8944 18.0224-6.5536 30.3104-7.7824 65.536-6.9632 40.5504 1.2288 45.056 2.048 74.1376 16.7936z m-310.0672 11.4688c12.288 6.9632 22.528 14.7456 22.528 17.2032 0 2.8672-3.6864 11.0592-8.192 18.432l-8.192 13.5168-24.9856-13.1072c-29.4912-15.9744-35.6352-24.576-26.2144-38.912 8.6016-13.1072 18.0224-12.288 45.056 2.8672z m503.3984-3.6864c3.6864 4.9152 6.5536 10.6496 6.5536 12.288 0 5.3248-15.9744 18.0224-36.4544 29.4912l-20.0704 10.6496-8.6016-14.7456c-4.9152-7.7824-8.6016-15.9744-8.6016-18.0224 0-5.7344 41.7792-28.672 52.0192-28.672 4.9152 0 11.8784 4.096 15.1552 9.0112z m-72.0896 393.216c2.8672 2.8672 4.9152 11.4688 4.9152 19.6608 0 13.1072 1.6384 15.1552 13.5168 18.432 12.288 3.6864 13.1072 5.3248 14.336 24.1664 0.8192 13.1072-0.4096 21.2992-4.096 23.3472-2.8672 2.048-106.0864 3.6864-228.9664 3.6864-175.7184 0-224.8704-1.2288-230.6048-5.3248-5.3248-3.6864-6.9632-9.4208-5.7344-21.2992 0.8192-13.9264 3.2768-17.2032 14.336-22.528 10.24-4.9152 13.5168-8.6016 13.5168-17.6128 0-6.5536 2.048-15.1552 4.096-19.6608 4.096-7.3728 10.6496-7.7824 201.9328-7.7824 148.2752 0 199.0656 1.2288 202.752 4.9152z" fill="#d81e06" p-id="3952"></path></svg>