<?xml version="1.0" standalone="no"?><!DOCTYPE svg PUBLIC "-//W3C//DTD SVG 1.1//EN" "http://www.w3.org/Graphics/SVG/1.1/DTD/svg11.dtd"><svg t="1517800373860" class="icon" style="" viewBox="0 0 1024 1024" version="1.1" xmlns="http://www.w3.org/2000/svg" p-id="4703" xmlns:xlink="http://www.w3.org/1999/xlink" width="48" height="48"><defs><style type="text/css">@font-face { font-family: uc-nexus-iconfont; src: url("chrome-extension://pogijhnlcfmcppgimcaccdkmbedjkmhi/res/font_9qmmi8b8jsxxbt9.woff") format("woff"), url("chrome-extension://pogijhnlcfmcppgimcaccdkmbedjkmhi/res/font_9qmmi8b8jsxxbt9.ttf") format("truetype"); }
</style></defs><path d="M512 0C229.248 0 0 229.248 0 512s229.248 512 512 512c282.752 0 512-229.248 512-512S794.752 0 512 0zM553.792 784.32c0 11.712-6.272 22.4-16.064 27.392-3.776 1.92-7.808 2.816-11.84 2.816-6.336 0-12.736-2.368-17.792-6.976l-159.36-144.32L219.584 663.232c-7.424 0-14.528-3.136-19.712-8.832-5.248-5.696-8.128-13.44-8.128-21.44l0.576-242.048c0-8.064 2.944-15.68 8.192-21.376C205.76 363.904 212.8 360.704 220.16 360.704l0.128 0 127.616 0.576 160.128-144.832c8.32-7.488 19.84-9.152 29.632-4.16 9.792 4.992 16.064 15.68 16.064 27.392L553.728 784.32zM649.792 660.16c-3.968 2.176-8.256 3.136-12.416 3.136-10.24 0-20.032-6.144-24.96-16.768-6.848-14.912-1.28-33.088 12.416-40.576 1.28-0.768 40.32-24.576 40.32-96.192 0-67.072-41.728-90.624-43.456-91.648C608.064 410.752 602.304 392.704 608.96 377.792c6.656-14.848 22.976-21.248 36.736-14.208 3.072 1.6 75.136 39.68 75.136 146.24C720.832 620.224 652.672 658.56 649.792 660.16zM736.32 748.992c-4.8 3.392-10.176 5.056-15.424 5.056-8.96 0-17.856-4.736-23.232-13.44-8.512-13.952-5.056-32.704 7.744-41.984 2.688-1.984 71.168-54.848 71.168-186.56 0-131.456-71.36-184.256-74.368-186.432-12.736-9.152-16.448-27.904-8.064-41.856 8.384-13.952 25.408-17.984 38.272-9.024 4.096 2.816 99.84 71.36 99.84 237.248C832.256 677.632 740.224 746.176 736.32 748.992z" p-id="4704" fill="#0fa75e"></path></svg>